%TF.GenerationSoftware,KiCad,Pcbnew,9.0.6*%
%TF.CreationDate,2026-03-30T21:26:09+03:00*%
%TF.ProjectId,hasanhackpad,68617361-6e68-4616-936b-7061642e6b69,rev?*%
%TF.SameCoordinates,Original*%
%TF.FileFunction,Copper,L2,Bot*%
%TF.FilePolarity,Positive*%
%FSLAX46Y46*%
G04 Gerber Fmt 4.6, Leading zero omitted, Abs format (unit mm)*
G04 Created by KiCad (PCBNEW 9.0.6) date 2026-03-30 21:26:09*
%MOMM*%
%LPD*%
G01*
G04 APERTURE LIST*
G04 Aperture macros list*
%AMRoundRect*
0 Rectangle with rounded corners*
0 $1 Rounding radius*
0 $2 $3 $4 $5 $6 $7 $8 $9 X,Y pos of 4 corners*
0 Add a 4 corners polygon primitive as box body*
4,1,4,$2,$3,$4,$5,$6,$7,$8,$9,$2,$3,0*
0 Add four circle primitives for the rounded corners*
1,1,$1+$1,$2,$3*
1,1,$1+$1,$4,$5*
1,1,$1+$1,$6,$7*
1,1,$1+$1,$8,$9*
0 Add four rect primitives between the rounded corners*
20,1,$1+$1,$2,$3,$4,$5,0*
20,1,$1+$1,$4,$5,$6,$7,0*
20,1,$1+$1,$6,$7,$8,$9,0*
20,1,$1+$1,$8,$9,$2,$3,0*%
G04 Aperture macros list end*
%TA.AperFunction,ComponentPad*%
%ADD10RoundRect,0.250000X0.550000X-0.550000X0.550000X0.550000X-0.550000X0.550000X-0.550000X-0.550000X0*%
%TD*%
%TA.AperFunction,ComponentPad*%
%ADD11C,1.600000*%
%TD*%
%TA.AperFunction,ComponentPad*%
%ADD12C,1.524000*%
%TD*%
%TA.AperFunction,ComponentPad*%
%ADD13C,2.200000*%
%TD*%
%TA.AperFunction,ComponentPad*%
%ADD14R,2.000000X2.000000*%
%TD*%
%TA.AperFunction,ComponentPad*%
%ADD15C,2.000000*%
%TD*%
%TA.AperFunction,ComponentPad*%
%ADD16R,3.200000X2.000000*%
%TD*%
%TA.AperFunction,Conductor*%
%ADD17C,0.200000*%
%TD*%
G04 APERTURE END LIST*
D10*
%TO.P,D11,1,K*%
%TO.N,row 2*%
X153150000Y-112847500D03*
D11*
%TO.P,D11,2,A*%
%TO.N,Net-(D11-A)*%
X153150000Y-105227500D03*
%TD*%
D10*
%TO.P,D3,1,K*%
%TO.N,row 1*%
X153358750Y-93797500D03*
D11*
%TO.P,D3,2,A*%
%TO.N,Net-(D3-A)*%
X153358750Y-86177500D03*
%TD*%
D12*
%TO.P,U1,1,GPIO26/ADC0/A0*%
%TO.N,col*%
X126880000Y-63148500D03*
%TO.P,U1,2,GPIO27/ADC1/A1*%
%TO.N,col 2*%
X126880000Y-65688500D03*
%TO.P,U1,3,GPIO28/ADC2/A2*%
%TO.N,col 3*%
X126880000Y-68228500D03*
%TO.P,U1,4,GPIO29/ADC3/A3*%
%TO.N,col 4*%
X126880000Y-70768500D03*
%TO.P,U1,5,GPIO6/SDA*%
%TO.N,row 1*%
X126880000Y-73308500D03*
%TO.P,U1,6,GPIO7/SCL*%
%TO.N,row 2*%
X126880000Y-75848500D03*
%TO.P,U1,7,GPIO0/TX*%
%TO.N,row 3*%
X126880000Y-78388500D03*
%TO.P,U1,8,GPIO1/RX*%
%TO.N,row 4*%
X142120000Y-78388500D03*
%TO.P,U1,9,GPIO2/SCK*%
%TO.N,rot a*%
X142120000Y-75848500D03*
%TO.P,U1,10,GPIO4/MISO*%
%TO.N,rot b*%
X142120000Y-73308500D03*
%TO.P,U1,11,GPIO3/MOSI*%
%TO.N,row 4*%
X142120000Y-70768500D03*
%TO.P,U1,12,3V3*%
%TO.N,unconnected-(U1-3V3-Pad12)*%
X142120000Y-68228500D03*
%TO.P,U1,13,GND*%
%TO.N,rot c*%
X142120000Y-65688500D03*
%TO.P,U1,14,VBUS*%
%TO.N,+5V*%
X142120000Y-63148500D03*
%TD*%
D10*
%TO.P,D12,1,K*%
%TO.N,row 3*%
X134133750Y-131897500D03*
D11*
%TO.P,D12,2,A*%
%TO.N,Net-(D12-A)*%
X134133750Y-124277500D03*
%TD*%
D10*
%TO.P,D18,1,K*%
%TO.N,row 4*%
X117431250Y-169997500D03*
D11*
%TO.P,D18,2,A*%
%TO.N,Net-(D18-A)*%
X117431250Y-162377500D03*
%TD*%
D13*
%TO.P,SW5,1,1*%
%TO.N,Net-(D14-A)*%
X108120000Y-142920000D03*
%TO.P,SW5,2,2*%
%TO.N,col*%
X101770000Y-145460000D03*
%TD*%
%TO.P,SW18,1,1*%
%TO.N,Net-(D7-A)*%
X165040000Y-123920000D03*
%TO.P,SW18,2,2*%
%TO.N,col 4*%
X158690000Y-126460000D03*
%TD*%
D10*
%TO.P,D8,1,K*%
%TO.N,row 4*%
X172200000Y-151032500D03*
D11*
%TO.P,D8,2,A*%
%TO.N,Net-(D8-A)*%
X172200000Y-143412500D03*
%TD*%
D13*
%TO.P,SW9,1,1*%
%TO.N,Net-(D4-A)*%
X127040000Y-85920000D03*
%TO.P,SW9,2,2*%
%TO.N,col 2*%
X120690000Y-88460000D03*
%TD*%
%TO.P,SW10,1,1*%
%TO.N,Net-(D17-A)*%
X127040000Y-104920000D03*
%TO.P,SW10,2,2*%
%TO.N,col 2*%
X120690000Y-107460000D03*
%TD*%
%TO.P,SW8,1,1*%
%TO.N,Net-(D5-A)*%
X108040000Y-85920000D03*
%TO.P,SW8,2,2*%
%TO.N,col*%
X101690000Y-88460000D03*
%TD*%
%TO.P,SW20,1,1*%
%TO.N,Net-(D2-A)*%
X165040000Y-85920000D03*
%TO.P,SW20,2,2*%
%TO.N,col 4*%
X158690000Y-88460000D03*
%TD*%
D10*
%TO.P,D15,1,K*%
%TO.N,row 3*%
X115050000Y-131982500D03*
D11*
%TO.P,D15,2,A*%
%TO.N,Net-(D15-A)*%
X115050000Y-124362500D03*
%TD*%
D10*
%TO.P,D9,1,K*%
%TO.N,row 4*%
X153227500Y-150947500D03*
D11*
%TO.P,D9,2,A*%
%TO.N,Net-(D9-A)*%
X153227500Y-143327500D03*
%TD*%
D13*
%TO.P,SW6,1,1*%
%TO.N,Net-(D15-A)*%
X108040000Y-123920000D03*
%TO.P,SW6,2,2*%
%TO.N,col*%
X101690000Y-126460000D03*
%TD*%
D14*
%TO.P,SW3,A,A*%
%TO.N,rot a*%
X98250000Y-162000000D03*
D15*
%TO.P,SW3,B,B*%
%TO.N,rot b*%
X98250000Y-167000000D03*
%TO.P,SW3,C,C*%
%TO.N,rot c*%
X98250000Y-164500000D03*
D16*
%TO.P,SW3,MP*%
%TO.N,N/C*%
X105750000Y-158900000D03*
X105750000Y-170100000D03*
D15*
%TO.P,SW3,S1,S1*%
%TO.N,col*%
X112750000Y-167000000D03*
%TO.P,SW3,S2,S2*%
%TO.N,Net-(D18-A)*%
X112750000Y-162000000D03*
%TD*%
D10*
%TO.P,D14,1,K*%
%TO.N,row 4*%
X115040000Y-150947500D03*
D11*
%TO.P,D14,2,A*%
%TO.N,Net-(D14-A)*%
X115040000Y-143327500D03*
%TD*%
D10*
%TO.P,D1,1,K*%
%TO.N,row 3*%
X153150000Y-131982500D03*
D11*
%TO.P,D1,2,A*%
%TO.N,Net-(D1-A)*%
X153150000Y-124362500D03*
%TD*%
D10*
%TO.P,D7,1,K*%
%TO.N,row 3*%
X172321250Y-131897500D03*
D11*
%TO.P,D7,2,A*%
%TO.N,Net-(D7-A)*%
X172321250Y-124277500D03*
%TD*%
D10*
%TO.P,D16,1,K*%
%TO.N,row 2*%
X114996250Y-112847500D03*
D11*
%TO.P,D16,2,A*%
%TO.N,Net-(D16-A)*%
X114996250Y-105227500D03*
%TD*%
D13*
%TO.P,SW17,1,1*%
%TO.N,Net-(D8-A)*%
X165040000Y-142920000D03*
%TO.P,SW17,2,2*%
%TO.N,col 4*%
X158690000Y-145460000D03*
%TD*%
D10*
%TO.P,D4,1,K*%
%TO.N,row 1*%
X134100000Y-93882500D03*
D11*
%TO.P,D4,2,A*%
%TO.N,Net-(D4-A)*%
X134100000Y-86262500D03*
%TD*%
D13*
%TO.P,SW13,1,1*%
%TO.N,Net-(D9-A)*%
X146040000Y-142920000D03*
%TO.P,SW13,2,2*%
%TO.N,col 3*%
X139690000Y-145460000D03*
%TD*%
%TO.P,SW19,1,1*%
%TO.N,Net-(D6-A)*%
X165040000Y-104920000D03*
%TO.P,SW19,2,2*%
%TO.N,col 4*%
X158690000Y-107460000D03*
%TD*%
D10*
%TO.P,D5,1,K*%
%TO.N,row 1*%
X115215000Y-93797500D03*
D11*
%TO.P,D5,2,A*%
%TO.N,Net-(D5-A)*%
X115215000Y-86177500D03*
%TD*%
D10*
%TO.P,D6,1,K*%
%TO.N,row 2*%
X172200000Y-112932500D03*
D11*
%TO.P,D6,2,A*%
%TO.N,Net-(D6-A)*%
X172200000Y-105312500D03*
%TD*%
D10*
%TO.P,D13,1,K*%
%TO.N,row 4*%
X134100000Y-150947500D03*
D11*
%TO.P,D13,2,A*%
%TO.N,Net-(D13-A)*%
X134100000Y-143327500D03*
%TD*%
D13*
%TO.P,SW12,1,1*%
%TO.N,Net-(D13-A)*%
X127040000Y-142920000D03*
%TO.P,SW12,2,2*%
%TO.N,col 2*%
X120690000Y-145460000D03*
%TD*%
%TO.P,SW16,1,1*%
%TO.N,Net-(D3-A)*%
X146040000Y-85920000D03*
%TO.P,SW16,2,2*%
%TO.N,col 3*%
X139690000Y-88460000D03*
%TD*%
D10*
%TO.P,D17,1,K*%
%TO.N,row 2*%
X134100000Y-112847500D03*
D11*
%TO.P,D17,2,A*%
%TO.N,Net-(D17-A)*%
X134100000Y-105227500D03*
%TD*%
D13*
%TO.P,SW15,1,1*%
%TO.N,Net-(D11-A)*%
X146040000Y-104920000D03*
%TO.P,SW15,2,2*%
%TO.N,col 3*%
X139690000Y-107460000D03*
%TD*%
%TO.P,SW2,1,1*%
%TO.N,Net-(D1-A)*%
X146040000Y-123920000D03*
%TO.P,SW2,2,2*%
%TO.N,col 3*%
X139690000Y-126460000D03*
%TD*%
%TO.P,SW7,1,1*%
%TO.N,Net-(D16-A)*%
X108040000Y-104920000D03*
%TO.P,SW7,2,2*%
%TO.N,col*%
X101690000Y-107460000D03*
%TD*%
%TO.P,SW11,1,1*%
%TO.N,Net-(D12-A)*%
X127040000Y-123920000D03*
%TO.P,SW11,2,2*%
%TO.N,col 2*%
X120690000Y-126460000D03*
%TD*%
D10*
%TO.P,D2,1,K*%
%TO.N,row 1*%
X172200000Y-93882500D03*
D11*
%TO.P,D2,2,A*%
%TO.N,Net-(D2-A)*%
X172200000Y-86262500D03*
%TD*%
D17*
%TO.N,Net-(D1-A)*%
X152707500Y-123920000D02*
X153150000Y-124362500D01*
X146040000Y-123920000D02*
X152707500Y-123920000D01*
%TO.N,row 3*%
X115409608Y-171499500D02*
X111449000Y-167538892D01*
X114114000Y-94582660D02*
X116097250Y-96565910D01*
X111449000Y-152652340D02*
X132203840Y-131897500D01*
X134133750Y-131097500D02*
X134133750Y-131897500D01*
X170714840Y-150631500D02*
X171414840Y-149931500D01*
X113895250Y-112062340D02*
X113895250Y-113632660D01*
X171414840Y-149931500D02*
X172985160Y-149931500D01*
X154328500Y-150631500D02*
X170714840Y-150631500D01*
X114114000Y-91154500D02*
X114114000Y-94582660D01*
X172985160Y-149931500D02*
X173301000Y-150247340D01*
X173301000Y-151817660D02*
X153619160Y-171499500D01*
X115050000Y-131982500D02*
X134048750Y-131982500D01*
X126880000Y-78388500D02*
X114114000Y-91154500D01*
X153150000Y-131982500D02*
X154328500Y-133161000D01*
X132203840Y-131897500D02*
X134133750Y-131897500D01*
X113895250Y-113632660D02*
X128061590Y-127799000D01*
X116097250Y-96565910D02*
X116097250Y-109860340D01*
X128061590Y-127799000D02*
X130835250Y-127799000D01*
X111449000Y-167538892D02*
X111449000Y-152652340D01*
X153619160Y-171499500D02*
X115409608Y-171499500D01*
X173301000Y-150247340D02*
X173301000Y-151817660D01*
X154328500Y-133161000D02*
X154328500Y-150631500D01*
X116097250Y-109860340D02*
X113895250Y-112062340D01*
X130835250Y-127799000D02*
X134133750Y-131097500D01*
X153150000Y-131982500D02*
X173082500Y-131982500D01*
X134048750Y-131982500D02*
X134133750Y-131897500D01*
%TO.N,row 1*%
X127247010Y-77252200D02*
X132999000Y-83004190D01*
X153273750Y-93882500D02*
X153358750Y-93797500D01*
X172115000Y-93797500D02*
X172200000Y-93882500D01*
X132999000Y-83004190D02*
X132999000Y-92781500D01*
X115215000Y-93797500D02*
X134015000Y-93797500D01*
X134100000Y-93882500D02*
X153273750Y-93882500D01*
X134015000Y-93797500D02*
X134100000Y-93882500D01*
X125817000Y-76288810D02*
X126780390Y-77252200D01*
X132999000Y-92781500D02*
X134100000Y-93882500D01*
X126880000Y-73308500D02*
X125817000Y-74371500D01*
X126780390Y-77252200D02*
X127247010Y-77252200D01*
X125817000Y-74371500D02*
X125817000Y-76288810D01*
X153358750Y-93797500D02*
X172115000Y-93797500D01*
%TO.N,Net-(D2-A)*%
X165040000Y-85920000D02*
X171857500Y-85920000D01*
X171857500Y-85920000D02*
X172200000Y-86262500D01*
%TO.N,Net-(D3-A)*%
X146297500Y-86177500D02*
X146040000Y-85920000D01*
X153358750Y-86177500D02*
X146297500Y-86177500D01*
%TO.N,Net-(D5-A)*%
X116527500Y-87490000D02*
X115215000Y-86177500D01*
X115160000Y-85920000D02*
X116730000Y-87490000D01*
X108040000Y-85920000D02*
X115160000Y-85920000D01*
X116730000Y-87490000D02*
X116527500Y-87490000D01*
%TO.N,row 2*%
X153150000Y-112847500D02*
X172115000Y-112847500D01*
X114996250Y-112847500D02*
X134100000Y-112847500D01*
X172115000Y-112847500D02*
X172200000Y-112932500D01*
X134100000Y-112847500D02*
X153150000Y-112847500D01*
%TO.N,Net-(D6-A)*%
X165040000Y-104920000D02*
X172730000Y-104920000D01*
X172730000Y-104920000D02*
X173122500Y-105312500D01*
X173122500Y-105312500D02*
X172200000Y-105312500D01*
%TO.N,Net-(D7-A)*%
X171963750Y-123920000D02*
X172321250Y-124277500D01*
X165040000Y-123920000D02*
X171963750Y-123920000D01*
%TO.N,row 4*%
X153213316Y-78388500D02*
X167205316Y-92380500D01*
X134100000Y-150947500D02*
X115040000Y-150947500D01*
X153312500Y-151032500D02*
X153227500Y-150947500D01*
X172200000Y-151032500D02*
X153312500Y-151032500D01*
X115040000Y-150947500D02*
X115040000Y-167606250D01*
X153227500Y-150947500D02*
X134100000Y-150947500D01*
X167205316Y-92380500D02*
X173151260Y-92380500D01*
X134100000Y-149068686D02*
X134100000Y-150947500D01*
X173702000Y-113316660D02*
X165808660Y-121210000D01*
X142120000Y-78388500D02*
X153213316Y-78388500D01*
X165808660Y-121210000D02*
X161958686Y-121210000D01*
X173151260Y-92380500D02*
X173702000Y-92931240D01*
X115040000Y-167606250D02*
X117431250Y-169997500D01*
X173702000Y-92931240D02*
X173702000Y-113316660D01*
X161958686Y-121210000D02*
X134100000Y-149068686D01*
%TO.N,Net-(D8-A)*%
X172487500Y-143700000D02*
X172200000Y-143412500D01*
X165040000Y-142920000D02*
X172410000Y-142920000D01*
X173190000Y-143700000D02*
X172487500Y-143700000D01*
X172410000Y-142920000D02*
X173190000Y-143700000D01*
%TO.N,Net-(D9-A)*%
X153227500Y-143327500D02*
X146447500Y-143327500D01*
X146447500Y-143327500D02*
X146040000Y-142920000D01*
%TO.N,Net-(D11-A)*%
X146040000Y-104920000D02*
X152842500Y-104920000D01*
X152842500Y-104920000D02*
X153150000Y-105227500D01*
%TO.N,Net-(D12-A)*%
X133776250Y-123920000D02*
X134133750Y-124277500D01*
X127040000Y-123920000D02*
X133776250Y-123920000D01*
%TO.N,Net-(D13-A)*%
X134100000Y-143327500D02*
X127447500Y-143327500D01*
X127447500Y-143327500D02*
X127040000Y-142920000D01*
%TO.N,Net-(D14-A)*%
X115040000Y-143327500D02*
X108527500Y-143327500D01*
X108527500Y-143327500D02*
X108120000Y-142920000D01*
%TO.N,Net-(D15-A)*%
X114607500Y-123920000D02*
X115050000Y-124362500D01*
X108040000Y-123920000D02*
X114607500Y-123920000D01*
%TO.N,Net-(D16-A)*%
X114688750Y-104920000D02*
X114996250Y-105227500D01*
X108040000Y-104920000D02*
X114688750Y-104920000D01*
%TO.N,Net-(D17-A)*%
X127347500Y-105227500D02*
X127040000Y-104920000D01*
X134100000Y-105227500D02*
X127347500Y-105227500D01*
%TO.N,Net-(D18-A)*%
X118532250Y-170782660D02*
X118216410Y-171098500D01*
X114051000Y-163301000D02*
X112750000Y-162000000D01*
X118532250Y-163478500D02*
X118532250Y-170782660D01*
X116646090Y-171098500D02*
X114051000Y-168503410D01*
X117431250Y-162377500D02*
X118532250Y-163478500D01*
X118216410Y-171098500D02*
X116646090Y-171098500D01*
X114051000Y-168503410D02*
X114051000Y-163301000D01*
%TO.N,rot a*%
X97711108Y-168301000D02*
X98788892Y-168301000D01*
X99551000Y-167538892D02*
X99551000Y-163301000D01*
X96548000Y-167137892D02*
X97711108Y-168301000D01*
X141679690Y-64625500D02*
X139540690Y-66764500D01*
X139540690Y-66764500D02*
X124647086Y-66764500D01*
X99551000Y-163301000D02*
X98250000Y-162000000D01*
X124647086Y-66764500D02*
X106238000Y-85173586D01*
X143183000Y-74785500D02*
X143183000Y-65248190D01*
X106238000Y-86334214D02*
X102069684Y-90502530D01*
X99922530Y-89799000D02*
X96548000Y-93173530D01*
X98788892Y-168301000D02*
X99551000Y-167538892D01*
X142120000Y-75848500D02*
X143183000Y-74785500D01*
X101621000Y-90502530D02*
X100917470Y-89799000D01*
X143183000Y-65248190D02*
X142560310Y-64625500D01*
X102069684Y-90502530D02*
X101621000Y-90502530D01*
X96548000Y-93173530D02*
X96548000Y-167137892D01*
X100917470Y-89799000D02*
X99922530Y-89799000D01*
X142560310Y-64625500D02*
X141679690Y-64625500D01*
X106238000Y-85173586D02*
X106238000Y-86334214D01*
%TO.N,rot c*%
X124813186Y-67165500D02*
X106639000Y-85339686D01*
X140643000Y-67165500D02*
X124813186Y-67165500D01*
X106639000Y-86500314D02*
X96949000Y-96190314D01*
X96949000Y-96190314D02*
X96949000Y-163199000D01*
X106639000Y-85339686D02*
X106639000Y-86500314D01*
X96949000Y-163199000D02*
X98250000Y-164500000D01*
X142120000Y-65688500D02*
X140643000Y-67165500D01*
%TD*%
M02*
