M48
; DRILL file {KiCad 9.0.6} date 2026-03-30T21:25:58+0300
; FORMAT={-:-/ absolute / metric / decimal}
; #@! TF.CreationDate,2026-03-30T21:25:58+03:00
; #@! TF.GenerationSoftware,Kicad,Pcbnew,9.0.6
; #@! TF.FileFunction,NonPlated,1,2,NPTH
FMAT,2
METRIC
; #@! TA.AperFunction,NonPlated,NPTH,ComponentDrill
T1C1.700
; #@! TA.AperFunction,NonPlated,NPTH,ComponentDrill
T2C4.000
%
G90
G05
T1
X100.42Y-91.0
X100.42Y-110.0
X100.42Y-129.0
X100.5Y-148.0
X110.58Y-91.0
X110.58Y-110.0
X110.58Y-129.0
X110.66Y-148.0
X119.42Y-91.0
X119.42Y-110.0
X119.42Y-129.0
X119.42Y-148.0
X129.58Y-91.0
X129.58Y-110.0
X129.58Y-129.0
X129.58Y-148.0
X138.42Y-91.0
X138.42Y-110.0
X138.42Y-129.0
X138.42Y-148.0
X148.58Y-91.0
X148.58Y-110.0
X148.58Y-129.0
X148.58Y-148.0
X157.42Y-91.0
X157.42Y-110.0
X157.42Y-129.0
X157.42Y-148.0
X167.58Y-91.0
X167.58Y-110.0
X167.58Y-129.0
X167.58Y-148.0
T2
X105.5Y-91.0
X105.5Y-110.0
X105.5Y-129.0
X105.58Y-148.0
X124.5Y-91.0
X124.5Y-110.0
X124.5Y-129.0
X124.5Y-148.0
X143.5Y-91.0
X143.5Y-110.0
X143.5Y-129.0
X143.5Y-148.0
X162.5Y-91.0
X162.5Y-110.0
X162.5Y-129.0
X162.5Y-148.0
M30
