M48
; DRILL file {KiCad 9.0.6} date 2026-03-30T21:25:58+0300
; FORMAT={-:-/ absolute / metric / decimal}
; #@! TF.CreationDate,2026-03-30T21:25:58+03:00
; #@! TF.GenerationSoftware,Kicad,Pcbnew,9.0.6
; #@! TF.FileFunction,Plated,1,2,PTH
FMAT,2
METRIC
; #@! TA.AperFunction,Plated,PTH,ComponentDrill
T1C0.800
; #@! TA.AperFunction,Plated,PTH,ComponentDrill
T2C0.889
; #@! TA.AperFunction,Plated,PTH,ComponentDrill
T3C1.000
; #@! TA.AperFunction,Plated,PTH,ComponentDrill
T4C1.500
%
G90
G05
T1
X114.996Y-105.227
X114.996Y-112.847
X115.04Y-143.327
X115.04Y-150.947
X115.05Y-124.362
X115.05Y-131.982
X115.215Y-86.177
X115.215Y-93.797
X117.431Y-162.377
X117.431Y-169.998
X134.1Y-86.263
X134.1Y-93.882
X134.1Y-105.227
X134.1Y-112.847
X134.1Y-143.327
X134.1Y-150.947
X134.134Y-124.277
X134.134Y-131.898
X153.15Y-105.227
X153.15Y-112.847
X153.15Y-124.362
X153.15Y-131.982
X153.227Y-143.327
X153.227Y-150.947
X153.359Y-86.177
X153.359Y-93.797
X172.2Y-86.263
X172.2Y-93.882
X172.2Y-105.312
X172.2Y-112.932
X172.2Y-143.412
X172.2Y-151.032
X172.321Y-124.277
X172.321Y-131.898
T2
X126.88Y-63.148
X126.88Y-65.688
X126.88Y-68.228
X126.88Y-70.769
X126.88Y-73.308
X126.88Y-75.849
X126.88Y-78.388
X142.12Y-63.148
X142.12Y-65.688
X142.12Y-68.228
X142.12Y-70.769
X142.12Y-73.308
X142.12Y-75.849
X142.12Y-78.388
T3
X98.25Y-162.0
X98.25Y-164.5
X98.25Y-167.0
X112.75Y-162.0
X112.75Y-167.0
T4
X101.69Y-88.46
X101.69Y-107.46
X101.69Y-126.46
X101.77Y-145.46
X108.04Y-85.92
X108.04Y-104.92
X108.04Y-123.92
X108.12Y-142.92
X120.69Y-88.46
X120.69Y-107.46
X120.69Y-126.46
X120.69Y-145.46
X127.04Y-85.92
X127.04Y-104.92
X127.04Y-123.92
X127.04Y-142.92
X139.69Y-88.46
X139.69Y-107.46
X139.69Y-126.46
X139.69Y-145.46
X146.04Y-85.92
X146.04Y-104.92
X146.04Y-123.92
X146.04Y-142.92
X158.69Y-88.46
X158.69Y-107.46
X158.69Y-126.46
X158.69Y-145.46
X165.04Y-85.92
X165.04Y-104.92
X165.04Y-123.92
X165.04Y-142.92
T4
G00X105.1Y-158.9
M15
G01X106.4Y-158.9
M16
G05
G00X105.1Y-170.1
M15
G01X106.4Y-170.1
M16
G05
M30
