%TF.GenerationSoftware,KiCad,Pcbnew,9.0.6*%
%TF.CreationDate,2026-03-30T21:26:09+03:00*%
%TF.ProjectId,hasanhackpad,68617361-6e68-4616-936b-7061642e6b69,rev?*%
%TF.SameCoordinates,Original*%
%TF.FileFunction,Copper,L1,Top*%
%TF.FilePolarity,Positive*%
%FSLAX46Y46*%
G04 Gerber Fmt 4.6, Leading zero omitted, Abs format (unit mm)*
G04 Created by KiCad (PCBNEW 9.0.6) date 2026-03-30 21:26:09*
%MOMM*%
%LPD*%
G01*
G04 APERTURE LIST*
G04 Aperture macros list*
%AMRoundRect*
0 Rectangle with rounded corners*
0 $1 Rounding radius*
0 $2 $3 $4 $5 $6 $7 $8 $9 X,Y pos of 4 corners*
0 Add a 4 corners polygon primitive as box body*
4,1,4,$2,$3,$4,$5,$6,$7,$8,$9,$2,$3,0*
0 Add four circle primitives for the rounded corners*
1,1,$1+$1,$2,$3*
1,1,$1+$1,$4,$5*
1,1,$1+$1,$6,$7*
1,1,$1+$1,$8,$9*
0 Add four rect primitives between the rounded corners*
20,1,$1+$1,$2,$3,$4,$5,0*
20,1,$1+$1,$4,$5,$6,$7,0*
20,1,$1+$1,$6,$7,$8,$9,0*
20,1,$1+$1,$8,$9,$2,$3,0*%
G04 Aperture macros list end*
%TA.AperFunction,ComponentPad*%
%ADD10RoundRect,0.250000X0.550000X-0.550000X0.550000X0.550000X-0.550000X0.550000X-0.550000X-0.550000X0*%
%TD*%
%TA.AperFunction,ComponentPad*%
%ADD11C,1.600000*%
%TD*%
%TA.AperFunction,SMDPad,CuDef*%
%ADD12RoundRect,0.152400X1.063600X0.609600X-1.063600X0.609600X-1.063600X-0.609600X1.063600X-0.609600X0*%
%TD*%
%TA.AperFunction,ComponentPad*%
%ADD13C,1.524000*%
%TD*%
%TA.AperFunction,SMDPad,CuDef*%
%ADD14RoundRect,0.152400X-1.063600X-0.609600X1.063600X-0.609600X1.063600X0.609600X-1.063600X0.609600X0*%
%TD*%
%TA.AperFunction,ComponentPad*%
%ADD15C,2.200000*%
%TD*%
%TA.AperFunction,ComponentPad*%
%ADD16R,2.000000X2.000000*%
%TD*%
%TA.AperFunction,ComponentPad*%
%ADD17C,2.000000*%
%TD*%
%TA.AperFunction,ComponentPad*%
%ADD18R,3.200000X2.000000*%
%TD*%
%TA.AperFunction,Conductor*%
%ADD19C,0.200000*%
%TD*%
G04 APERTURE END LIST*
D10*
%TO.P,D11,1,K*%
%TO.N,row 2*%
X153150000Y-112847500D03*
D11*
%TO.P,D11,2,A*%
%TO.N,Net-(D11-A)*%
X153150000Y-105227500D03*
%TD*%
D10*
%TO.P,D3,1,K*%
%TO.N,row 1*%
X153358750Y-93797500D03*
D11*
%TO.P,D3,2,A*%
%TO.N,Net-(D3-A)*%
X153358750Y-86177500D03*
%TD*%
D12*
%TO.P,U1,1,GPIO26/ADC0/A0*%
%TO.N,col*%
X126045000Y-63148500D03*
D13*
X126880000Y-63148500D03*
D12*
%TO.P,U1,2,GPIO27/ADC1/A1*%
%TO.N,col 2*%
X126045000Y-65688500D03*
D13*
X126880000Y-65688500D03*
D12*
%TO.P,U1,3,GPIO28/ADC2/A2*%
%TO.N,col 3*%
X126045000Y-68228500D03*
D13*
X126880000Y-68228500D03*
D12*
%TO.P,U1,4,GPIO29/ADC3/A3*%
%TO.N,col 4*%
X126045000Y-70768500D03*
D13*
X126880000Y-70768500D03*
D12*
%TO.P,U1,5,GPIO6/SDA*%
%TO.N,row 1*%
X126045000Y-73308500D03*
D13*
X126880000Y-73308500D03*
D12*
%TO.P,U1,6,GPIO7/SCL*%
%TO.N,row 2*%
X126045000Y-75848500D03*
D13*
X126880000Y-75848500D03*
D12*
%TO.P,U1,7,GPIO0/TX*%
%TO.N,row 3*%
X126045000Y-78388500D03*
D13*
X126880000Y-78388500D03*
%TO.P,U1,8,GPIO1/RX*%
%TO.N,row 4*%
X142120000Y-78388500D03*
D14*
X142955000Y-78388500D03*
D13*
%TO.P,U1,9,GPIO2/SCK*%
%TO.N,rot a*%
X142120000Y-75848500D03*
D14*
X142955000Y-75848500D03*
D13*
%TO.P,U1,10,GPIO4/MISO*%
%TO.N,rot b*%
X142120000Y-73308500D03*
D14*
X142955000Y-73308500D03*
D13*
%TO.P,U1,11,GPIO3/MOSI*%
%TO.N,row 4*%
X142120000Y-70768500D03*
D14*
X142955000Y-70768500D03*
D13*
%TO.P,U1,12,3V3*%
%TO.N,unconnected-(U1-3V3-Pad12)*%
X142120000Y-68228500D03*
D14*
X142955000Y-68228500D03*
D13*
%TO.P,U1,13,GND*%
%TO.N,rot c*%
X142120000Y-65688500D03*
D14*
X142955000Y-65688500D03*
D13*
%TO.P,U1,14,VBUS*%
%TO.N,+5V*%
X142120000Y-63148500D03*
D14*
X142955000Y-63148500D03*
%TD*%
D10*
%TO.P,D12,1,K*%
%TO.N,row 3*%
X134133750Y-131897500D03*
D11*
%TO.P,D12,2,A*%
%TO.N,Net-(D12-A)*%
X134133750Y-124277500D03*
%TD*%
D10*
%TO.P,D18,1,K*%
%TO.N,row 4*%
X117431250Y-169997500D03*
D11*
%TO.P,D18,2,A*%
%TO.N,Net-(D18-A)*%
X117431250Y-162377500D03*
%TD*%
D15*
%TO.P,SW5,1,1*%
%TO.N,Net-(D14-A)*%
X108120000Y-142920000D03*
%TO.P,SW5,2,2*%
%TO.N,col*%
X101770000Y-145460000D03*
%TD*%
%TO.P,SW18,1,1*%
%TO.N,Net-(D7-A)*%
X165040000Y-123920000D03*
%TO.P,SW18,2,2*%
%TO.N,col 4*%
X158690000Y-126460000D03*
%TD*%
D10*
%TO.P,D8,1,K*%
%TO.N,row 4*%
X172200000Y-151032500D03*
D11*
%TO.P,D8,2,A*%
%TO.N,Net-(D8-A)*%
X172200000Y-143412500D03*
%TD*%
D15*
%TO.P,SW9,1,1*%
%TO.N,Net-(D4-A)*%
X127040000Y-85920000D03*
%TO.P,SW9,2,2*%
%TO.N,col 2*%
X120690000Y-88460000D03*
%TD*%
%TO.P,SW10,1,1*%
%TO.N,Net-(D17-A)*%
X127040000Y-104920000D03*
%TO.P,SW10,2,2*%
%TO.N,col 2*%
X120690000Y-107460000D03*
%TD*%
%TO.P,SW8,1,1*%
%TO.N,Net-(D5-A)*%
X108040000Y-85920000D03*
%TO.P,SW8,2,2*%
%TO.N,col*%
X101690000Y-88460000D03*
%TD*%
%TO.P,SW20,1,1*%
%TO.N,Net-(D2-A)*%
X165040000Y-85920000D03*
%TO.P,SW20,2,2*%
%TO.N,col 4*%
X158690000Y-88460000D03*
%TD*%
D10*
%TO.P,D15,1,K*%
%TO.N,row 3*%
X115050000Y-131982500D03*
D11*
%TO.P,D15,2,A*%
%TO.N,Net-(D15-A)*%
X115050000Y-124362500D03*
%TD*%
D10*
%TO.P,D9,1,K*%
%TO.N,row 4*%
X153227500Y-150947500D03*
D11*
%TO.P,D9,2,A*%
%TO.N,Net-(D9-A)*%
X153227500Y-143327500D03*
%TD*%
D15*
%TO.P,SW6,1,1*%
%TO.N,Net-(D15-A)*%
X108040000Y-123920000D03*
%TO.P,SW6,2,2*%
%TO.N,col*%
X101690000Y-126460000D03*
%TD*%
D16*
%TO.P,SW3,A,A*%
%TO.N,rot a*%
X98250000Y-162000000D03*
D17*
%TO.P,SW3,B,B*%
%TO.N,rot b*%
X98250000Y-167000000D03*
%TO.P,SW3,C,C*%
%TO.N,rot c*%
X98250000Y-164500000D03*
D18*
%TO.P,SW3,MP*%
%TO.N,N/C*%
X105750000Y-158900000D03*
X105750000Y-170100000D03*
D17*
%TO.P,SW3,S1,S1*%
%TO.N,col*%
X112750000Y-167000000D03*
%TO.P,SW3,S2,S2*%
%TO.N,Net-(D18-A)*%
X112750000Y-162000000D03*
%TD*%
D10*
%TO.P,D14,1,K*%
%TO.N,row 4*%
X115040000Y-150947500D03*
D11*
%TO.P,D14,2,A*%
%TO.N,Net-(D14-A)*%
X115040000Y-143327500D03*
%TD*%
D10*
%TO.P,D1,1,K*%
%TO.N,row 3*%
X153150000Y-131982500D03*
D11*
%TO.P,D1,2,A*%
%TO.N,Net-(D1-A)*%
X153150000Y-124362500D03*
%TD*%
D10*
%TO.P,D7,1,K*%
%TO.N,row 3*%
X172321250Y-131897500D03*
D11*
%TO.P,D7,2,A*%
%TO.N,Net-(D7-A)*%
X172321250Y-124277500D03*
%TD*%
D10*
%TO.P,D16,1,K*%
%TO.N,row 2*%
X114996250Y-112847500D03*
D11*
%TO.P,D16,2,A*%
%TO.N,Net-(D16-A)*%
X114996250Y-105227500D03*
%TD*%
D15*
%TO.P,SW17,1,1*%
%TO.N,Net-(D8-A)*%
X165040000Y-142920000D03*
%TO.P,SW17,2,2*%
%TO.N,col 4*%
X158690000Y-145460000D03*
%TD*%
D10*
%TO.P,D4,1,K*%
%TO.N,row 1*%
X134100000Y-93882500D03*
D11*
%TO.P,D4,2,A*%
%TO.N,Net-(D4-A)*%
X134100000Y-86262500D03*
%TD*%
D15*
%TO.P,SW13,1,1*%
%TO.N,Net-(D9-A)*%
X146040000Y-142920000D03*
%TO.P,SW13,2,2*%
%TO.N,col 3*%
X139690000Y-145460000D03*
%TD*%
%TO.P,SW19,1,1*%
%TO.N,Net-(D6-A)*%
X165040000Y-104920000D03*
%TO.P,SW19,2,2*%
%TO.N,col 4*%
X158690000Y-107460000D03*
%TD*%
D10*
%TO.P,D5,1,K*%
%TO.N,row 1*%
X115215000Y-93797500D03*
D11*
%TO.P,D5,2,A*%
%TO.N,Net-(D5-A)*%
X115215000Y-86177500D03*
%TD*%
D10*
%TO.P,D6,1,K*%
%TO.N,row 2*%
X172200000Y-112932500D03*
D11*
%TO.P,D6,2,A*%
%TO.N,Net-(D6-A)*%
X172200000Y-105312500D03*
%TD*%
D10*
%TO.P,D13,1,K*%
%TO.N,row 4*%
X134100000Y-150947500D03*
D11*
%TO.P,D13,2,A*%
%TO.N,Net-(D13-A)*%
X134100000Y-143327500D03*
%TD*%
D15*
%TO.P,SW12,1,1*%
%TO.N,Net-(D13-A)*%
X127040000Y-142920000D03*
%TO.P,SW12,2,2*%
%TO.N,col 2*%
X120690000Y-145460000D03*
%TD*%
%TO.P,SW16,1,1*%
%TO.N,Net-(D3-A)*%
X146040000Y-85920000D03*
%TO.P,SW16,2,2*%
%TO.N,col 3*%
X139690000Y-88460000D03*
%TD*%
D10*
%TO.P,D17,1,K*%
%TO.N,row 2*%
X134100000Y-112847500D03*
D11*
%TO.P,D17,2,A*%
%TO.N,Net-(D17-A)*%
X134100000Y-105227500D03*
%TD*%
D15*
%TO.P,SW15,1,1*%
%TO.N,Net-(D11-A)*%
X146040000Y-104920000D03*
%TO.P,SW15,2,2*%
%TO.N,col 3*%
X139690000Y-107460000D03*
%TD*%
%TO.P,SW2,1,1*%
%TO.N,Net-(D1-A)*%
X146040000Y-123920000D03*
%TO.P,SW2,2,2*%
%TO.N,col 3*%
X139690000Y-126460000D03*
%TD*%
%TO.P,SW7,1,1*%
%TO.N,Net-(D16-A)*%
X108040000Y-104920000D03*
%TO.P,SW7,2,2*%
%TO.N,col*%
X101690000Y-107460000D03*
%TD*%
%TO.P,SW11,1,1*%
%TO.N,Net-(D12-A)*%
X127040000Y-123920000D03*
%TO.P,SW11,2,2*%
%TO.N,col 2*%
X120690000Y-126460000D03*
%TD*%
D10*
%TO.P,D2,1,K*%
%TO.N,row 1*%
X172200000Y-93882500D03*
D11*
%TO.P,D2,2,A*%
%TO.N,Net-(D2-A)*%
X172200000Y-86262500D03*
%TD*%
D19*
%TO.N,col 3*%
X139690000Y-88460000D02*
X139690000Y-84201190D01*
X139690000Y-145460000D02*
X139690000Y-126460000D01*
X124789374Y-71831500D02*
X124528000Y-71570126D01*
X139690000Y-84201190D02*
X127320310Y-71831500D01*
X139690000Y-107460000D02*
X139690000Y-88460000D01*
X139690000Y-126460000D02*
X139690000Y-107460000D01*
X124528000Y-71570126D02*
X124528000Y-69745500D01*
X127320310Y-71831500D02*
X124789374Y-71831500D01*
X124528000Y-69745500D02*
X126045000Y-68228500D01*
%TO.N,col*%
X101690000Y-88460000D02*
X101690000Y-107460000D01*
X101690000Y-86904366D02*
X125445866Y-63148500D01*
X111449000Y-165699000D02*
X112750000Y-167000000D01*
X101690000Y-88460000D02*
X101690000Y-86904366D01*
X101770000Y-145460000D02*
X101770000Y-147990000D01*
X101770000Y-147990000D02*
X111449000Y-157669000D01*
X101690000Y-126460000D02*
X101690000Y-145380000D01*
X101690000Y-107460000D02*
X101690000Y-126460000D01*
X111449000Y-157669000D02*
X111449000Y-165699000D01*
X101690000Y-145380000D02*
X101770000Y-145460000D01*
X125445866Y-63148500D02*
X126880000Y-63148500D01*
%TO.N,col 2*%
X120690000Y-88460000D02*
X120690000Y-107460000D01*
X120690000Y-71043500D02*
X126045000Y-65688500D01*
X120690000Y-88460000D02*
X120690000Y-71043500D01*
X120690000Y-126460000D02*
X120690000Y-145460000D01*
X120690000Y-107460000D02*
X120690000Y-126460000D01*
%TO.N,col 4*%
X128708500Y-70768500D02*
X126045000Y-70768500D01*
X158690000Y-126460000D02*
X158690000Y-145460000D01*
X158690000Y-88460000D02*
X146400000Y-88460000D01*
X158690000Y-88460000D02*
X158690000Y-107460000D01*
X158690000Y-107460000D02*
X158690000Y-126460000D01*
X146400000Y-88460000D02*
X128708500Y-70768500D01*
%TD*%
M02*
