%TF.GenerationSoftware,KiCad,Pcbnew,9.0.6*%
%TF.CreationDate,2026-03-30T21:26:09+03:00*%
%TF.ProjectId,hasanhackpad,68617361-6e68-4616-936b-7061642e6b69,rev?*%
%TF.SameCoordinates,Original*%
%TF.FileFunction,Soldermask,Top*%
%TF.FilePolarity,Negative*%
%FSLAX46Y46*%
G04 Gerber Fmt 4.6, Leading zero omitted, Abs format (unit mm)*
G04 Created by KiCad (PCBNEW 9.0.6) date 2026-03-30 21:26:09*
%MOMM*%
%LPD*%
G01*
G04 APERTURE LIST*
G04 Aperture macros list*
%AMRoundRect*
0 Rectangle with rounded corners*
0 $1 Rounding radius*
0 $2 $3 $4 $5 $6 $7 $8 $9 X,Y pos of 4 corners*
0 Add a 4 corners polygon primitive as box body*
4,1,4,$2,$3,$4,$5,$6,$7,$8,$9,$2,$3,0*
0 Add four circle primitives for the rounded corners*
1,1,$1+$1,$2,$3*
1,1,$1+$1,$4,$5*
1,1,$1+$1,$6,$7*
1,1,$1+$1,$8,$9*
0 Add four rect primitives between the rounded corners*
20,1,$1+$1,$2,$3,$4,$5,0*
20,1,$1+$1,$4,$5,$6,$7,0*
20,1,$1+$1,$6,$7,$8,$9,0*
20,1,$1+$1,$8,$9,$2,$3,0*%
G04 Aperture macros list end*
%ADD10RoundRect,0.250000X0.550000X-0.550000X0.550000X0.550000X-0.550000X0.550000X-0.550000X-0.550000X0*%
%ADD11C,1.600000*%
%ADD12RoundRect,0.152400X1.063600X0.609600X-1.063600X0.609600X-1.063600X-0.609600X1.063600X-0.609600X0*%
%ADD13C,1.524000*%
%ADD14RoundRect,0.152400X-1.063600X-0.609600X1.063600X-0.609600X1.063600X0.609600X-1.063600X0.609600X0*%
%ADD15C,1.700000*%
%ADD16C,4.000000*%
%ADD17C,2.200000*%
%ADD18R,2.000000X2.000000*%
%ADD19C,2.000000*%
%ADD20R,3.200000X2.000000*%
G04 APERTURE END LIST*
D10*
%TO.C,D11*%
X153150000Y-112847500D03*
D11*
X153150000Y-105227500D03*
%TD*%
D10*
%TO.C,D3*%
X153358750Y-93797500D03*
D11*
X153358750Y-86177500D03*
%TD*%
D12*
%TO.C,U1*%
X126045000Y-63148500D03*
D13*
X126880000Y-63148500D03*
D12*
X126045000Y-65688500D03*
D13*
X126880000Y-65688500D03*
D12*
X126045000Y-68228500D03*
D13*
X126880000Y-68228500D03*
D12*
X126045000Y-70768500D03*
D13*
X126880000Y-70768500D03*
D12*
X126045000Y-73308500D03*
D13*
X126880000Y-73308500D03*
D12*
X126045000Y-75848500D03*
D13*
X126880000Y-75848500D03*
D12*
X126045000Y-78388500D03*
D13*
X126880000Y-78388500D03*
X142120000Y-78388500D03*
D14*
X142955000Y-78388500D03*
D13*
X142120000Y-75848500D03*
D14*
X142955000Y-75848500D03*
D13*
X142120000Y-73308500D03*
D14*
X142955000Y-73308500D03*
D13*
X142120000Y-70768500D03*
D14*
X142955000Y-70768500D03*
D13*
X142120000Y-68228500D03*
D14*
X142955000Y-68228500D03*
D13*
X142120000Y-65688500D03*
D14*
X142955000Y-65688500D03*
D13*
X142120000Y-63148500D03*
D14*
X142955000Y-63148500D03*
%TD*%
D10*
%TO.C,D12*%
X134133750Y-131897500D03*
D11*
X134133750Y-124277500D03*
%TD*%
D10*
%TO.C,D18*%
X117431250Y-169997500D03*
D11*
X117431250Y-162377500D03*
%TD*%
D15*
%TO.C,SW5*%
X100500000Y-148000000D03*
D16*
X105580000Y-148000000D03*
D15*
X110660000Y-148000000D03*
D17*
X108120000Y-142920000D03*
X101770000Y-145460000D03*
%TD*%
D15*
%TO.C,SW18*%
X157420000Y-129000000D03*
D16*
X162500000Y-129000000D03*
D15*
X167580000Y-129000000D03*
D17*
X165040000Y-123920000D03*
X158690000Y-126460000D03*
%TD*%
D10*
%TO.C,D8*%
X172200000Y-151032500D03*
D11*
X172200000Y-143412500D03*
%TD*%
D15*
%TO.C,SW9*%
X119420000Y-91000000D03*
D16*
X124500000Y-91000000D03*
D15*
X129580000Y-91000000D03*
D17*
X127040000Y-85920000D03*
X120690000Y-88460000D03*
%TD*%
D15*
%TO.C,SW10*%
X119420000Y-110000000D03*
D16*
X124500000Y-110000000D03*
D15*
X129580000Y-110000000D03*
D17*
X127040000Y-104920000D03*
X120690000Y-107460000D03*
%TD*%
D15*
%TO.C,SW8*%
X100420000Y-91000000D03*
D16*
X105500000Y-91000000D03*
D15*
X110580000Y-91000000D03*
D17*
X108040000Y-85920000D03*
X101690000Y-88460000D03*
%TD*%
D15*
%TO.C,SW20*%
X157420000Y-91000000D03*
D16*
X162500000Y-91000000D03*
D15*
X167580000Y-91000000D03*
D17*
X165040000Y-85920000D03*
X158690000Y-88460000D03*
%TD*%
D10*
%TO.C,D15*%
X115050000Y-131982500D03*
D11*
X115050000Y-124362500D03*
%TD*%
D10*
%TO.C,D9*%
X153227500Y-150947500D03*
D11*
X153227500Y-143327500D03*
%TD*%
D15*
%TO.C,SW6*%
X100420000Y-129000000D03*
D16*
X105500000Y-129000000D03*
D15*
X110580000Y-129000000D03*
D17*
X108040000Y-123920000D03*
X101690000Y-126460000D03*
%TD*%
D18*
%TO.C,SW3*%
X98250000Y-162000000D03*
D19*
X98250000Y-167000000D03*
X98250000Y-164500000D03*
D20*
X105750000Y-158900000D03*
X105750000Y-170100000D03*
D19*
X112750000Y-167000000D03*
X112750000Y-162000000D03*
%TD*%
D10*
%TO.C,D14*%
X115040000Y-150947500D03*
D11*
X115040000Y-143327500D03*
%TD*%
D10*
%TO.C,D1*%
X153150000Y-131982500D03*
D11*
X153150000Y-124362500D03*
%TD*%
D10*
%TO.C,D7*%
X172321250Y-131897500D03*
D11*
X172321250Y-124277500D03*
%TD*%
D10*
%TO.C,D16*%
X114996250Y-112847500D03*
D11*
X114996250Y-105227500D03*
%TD*%
D15*
%TO.C,SW17*%
X157420000Y-148000000D03*
D16*
X162500000Y-148000000D03*
D15*
X167580000Y-148000000D03*
D17*
X165040000Y-142920000D03*
X158690000Y-145460000D03*
%TD*%
D10*
%TO.C,D4*%
X134100000Y-93882500D03*
D11*
X134100000Y-86262500D03*
%TD*%
D15*
%TO.C,SW13*%
X138420000Y-148000000D03*
D16*
X143500000Y-148000000D03*
D15*
X148580000Y-148000000D03*
D17*
X146040000Y-142920000D03*
X139690000Y-145460000D03*
%TD*%
D15*
%TO.C,SW19*%
X157420000Y-110000000D03*
D16*
X162500000Y-110000000D03*
D15*
X167580000Y-110000000D03*
D17*
X165040000Y-104920000D03*
X158690000Y-107460000D03*
%TD*%
D10*
%TO.C,D5*%
X115215000Y-93797500D03*
D11*
X115215000Y-86177500D03*
%TD*%
D10*
%TO.C,D6*%
X172200000Y-112932500D03*
D11*
X172200000Y-105312500D03*
%TD*%
D10*
%TO.C,D13*%
X134100000Y-150947500D03*
D11*
X134100000Y-143327500D03*
%TD*%
D15*
%TO.C,SW12*%
X119420000Y-148000000D03*
D16*
X124500000Y-148000000D03*
D15*
X129580000Y-148000000D03*
D17*
X127040000Y-142920000D03*
X120690000Y-145460000D03*
%TD*%
D15*
%TO.C,SW16*%
X138420000Y-91000000D03*
D16*
X143500000Y-91000000D03*
D15*
X148580000Y-91000000D03*
D17*
X146040000Y-85920000D03*
X139690000Y-88460000D03*
%TD*%
D10*
%TO.C,D17*%
X134100000Y-112847500D03*
D11*
X134100000Y-105227500D03*
%TD*%
D15*
%TO.C,SW15*%
X138420000Y-110000000D03*
D16*
X143500000Y-110000000D03*
D15*
X148580000Y-110000000D03*
D17*
X146040000Y-104920000D03*
X139690000Y-107460000D03*
%TD*%
D15*
%TO.C,SW2*%
X138420000Y-129000000D03*
D16*
X143500000Y-129000000D03*
D15*
X148580000Y-129000000D03*
D17*
X146040000Y-123920000D03*
X139690000Y-126460000D03*
%TD*%
D15*
%TO.C,SW7*%
X100420000Y-110000000D03*
D16*
X105500000Y-110000000D03*
D15*
X110580000Y-110000000D03*
D17*
X108040000Y-104920000D03*
X101690000Y-107460000D03*
%TD*%
D15*
%TO.C,SW11*%
X119420000Y-129000000D03*
D16*
X124500000Y-129000000D03*
D15*
X129580000Y-129000000D03*
D17*
X127040000Y-123920000D03*
X120690000Y-126460000D03*
%TD*%
D10*
%TO.C,D2*%
X172200000Y-93882500D03*
D11*
X172200000Y-86262500D03*
%TD*%
M02*
